<svg width="100" height="16" viewBox="0 0 100 16" fill="none" xmlns="http://www.w3.org/2000/svg">
<g clip-path="url(#clip0_87_550)">
<path fill-rule="evenodd" clip-rule="evenodd" d="M11.3784 0.394119V6.55453C11.3676 10.267 11.1676 12.7852 6.07568 15.3304L5.68649 15.525L5.2973 15.3304C0.210811 12.7798 0.0108108 10.2616 0 6.55453V0.394119H11.3784ZM9.64865 2.11795H1.72973V6.42484C1.72973 9.8725 1.85405 11.5693 5.69189 13.5904C9.47027 11.6017 9.64865 9.92654 9.65405 6.59236V2.11795H9.64865ZM60.3892 1.88018C62.9892 1.88018 64.3405 2.98257 65.0432 4.64696L62.2 5.41972C61.9838 4.46323 61.3676 3.97688 60.3405 3.97688C58.8757 3.97688 57.7568 5.09548 57.7568 7.40834V7.55965C57.7568 9.88872 58.6811 11.0073 60.3784 11.0073C61.827 11.0073 62.6378 10.0508 62.7676 8.96465H60.5243V6.82472H65.2432V12.85H63.1784L62.9676 9.94816L62.9405 10.0887C62.5946 11.8881 61.373 13.0608 59.5189 13.0608C56.573 13.0608 54.8865 10.7479 54.8865 7.55965C54.8865 4.12819 56.9027 1.87478 60.4 1.87478L60.3892 1.88018ZM28.9622 4.49566C31.5784 4.49566 32.7838 6.14924 32.7838 8.46209V8.53775C32.7838 8.7431 32.7838 9.24565 32.7676 9.28889H27.4649C27.5784 10.6182 28.2649 11.2019 29.2703 11.2019C30.0162 11.2019 30.7027 10.8776 31.0595 10.2778L32.5243 11.4126C31.8108 12.4015 30.6865 13.05 28.9946 13.05C26.5081 13.05 24.8432 11.6234 24.8432 8.82415C24.8432 6.02495 26.5027 4.50106 28.9568 4.50106L28.9622 4.49566ZM50.4919 4.54429C52.2162 4.54429 53.1135 5.12791 53.7297 5.88985L52.3297 7.2192C52.1027 6.83013 51.5838 6.24651 50.7351 6.24651C50.1189 6.24651 49.7568 6.52211 49.7568 6.89497C49.7568 7.51101 50.573 7.73798 51.6757 8.11084C52.7676 8.48371 53.8216 9.01869 53.8216 10.5264C53.8216 11.9044 52.5513 13.0338 50.3081 13.0338C48.8324 13.0338 47.4919 12.4826 46.7946 11.4775L48.1784 10.1643C48.6 10.7479 49.2054 11.2829 50.1459 11.2829C50.6973 11.2829 51.0865 11.0235 51.0865 10.6182C51.0865 10.0184 50.1459 9.74281 48.973 9.32671C47.9784 8.98627 47.0757 8.30538 47.0757 7.01386C47.0757 5.72233 48.2757 4.54969 50.4919 4.54969V4.54429ZM79.9567 4.51727C82.4324 4.51727 83.5027 5.65208 83.5027 7.62449V10.2238C83.5027 11.9098 83.7135 12.6555 83.973 12.85H81.3784C81.1946 12.6879 81.0216 12.2826 80.973 11.2397C80.5838 12.5204 79.4919 13.023 78.4162 13.023C76.8216 13.023 75.9189 12.1151 75.9189 10.8074C75.9189 9.25106 77.2378 8.63502 79.0108 8.27836C80.1838 8.03519 80.8486 7.9055 80.9622 7.75959V7.55965C80.9622 6.87876 80.6378 6.39241 79.6919 6.39241C78.9027 6.3762 78.1838 6.84634 77.8865 7.57586L75.9892 6.52211C76.5892 5.32785 78.0703 4.51727 79.9567 4.51727ZM69.5189 4.72262V9.38616C69.5189 10.602 69.7622 10.9425 70.4486 10.9425C71.2162 10.9425 71.7676 10.0454 71.7676 8.92142V4.72802H74.4541V12.8554H71.9838V11.8503L72.0486 10.6344H71.9081C71.7784 11.5909 71.0757 13.0122 69.4216 13.0122C67.7676 13.0122 66.9297 12.1043 66.9297 9.80766V4.72262H69.5297H69.5189ZM100 1.04799V12.85H97.5459L97.6108 10.8614L97.6432 10.5372L97.5784 10.6344C97.3513 11.98 96.3784 12.9959 94.8649 12.9959C93.0757 12.9959 91.7568 11.5531 91.7568 8.7539C91.7568 5.79258 93.2541 4.46323 95.0757 4.46323C96.5243 4.46323 97.2378 5.38729 97.4649 6.2303H97.5784L97.4162 4.49566V1.04799H100ZM90.8703 4.57671V7.56505H90.2703C88.5297 7.56505 88.0432 8.26215 88.0432 10.0724V12.8608H85.3459V4.72802H87.7027V6.07358L87.5567 8.45129H87.7027C87.9027 6.29514 88.6595 4.57671 90.6649 4.57671H90.8757H90.8703ZM16.7243 2.11795L19.7676 7.17057L21.0378 9.69418L20.7946 6.86255V2.11795H23.3459V12.8554H20.9081L17.2811 7.13815L16.0811 4.82529L16.4 7.36511V12.8554H13.8811V2.11795H16.7297H16.7243ZM36.2216 4.72262L36.8703 8.80254L37.1459 11.0235H37.2595L37.6486 8.80254L38.6108 4.72262H41.4865L42.3189 8.80254L42.6757 11.056H42.8054L43.0811 8.80254L43.7946 4.72262H46.3351L44.1568 12.85H41.0324L40.2162 8.98087L39.8919 6.55453H39.7784L39.4378 8.98087L38.5135 12.85H35.5892L33.4595 4.72262H36.227H36.2216ZM80.9622 8.60259C80.7622 8.79713 80.4432 8.94304 79.9513 9.09975C79.0595 9.37535 78.4865 9.74821 78.4865 10.4291C78.4865 11.0451 78.9081 11.3532 79.4162 11.3532C80.0811 11.364 80.8649 10.9749 80.9622 10.0022V8.60259ZM96.0378 6.19787C95.1784 6.19787 94.5405 6.94361 94.5405 8.59719C94.5405 10.2508 94.9784 11.2181 95.973 11.2181C96.9676 11.2181 97.5081 10.0833 97.5081 8.87279V8.24054C97.5081 7.17057 97.1513 6.19787 96.0432 6.19787H96.0378ZM28.9351 6.17626C28.0919 6.17626 27.5514 6.66801 27.5027 7.95953H30.2162V7.86226C30.2162 6.82472 29.8919 6.17626 28.9297 6.17626H28.9351Z" fill="#777777"/>
</g>
<defs>
<clipPath id="clip0_87_550">
<rect width="100" height="15.1308" fill="white" transform="translate(0 0.394119)"/>
</clipPath>
</defs>
</svg>
