<svg width="18" height="18" viewBox="0 0 18 18" fill="none" xmlns="http://www.w3.org/2000/svg">
<path fill-rule="evenodd" clip-rule="evenodd" d="M7.66962 1.76358C6.69577 1.56896 5.68633 1.66888 4.7688 2.05087C3.85123 2.43288 3.06645 3.07997 2.51405 3.91085C1.96164 4.74176 1.66659 5.71899 1.66659 6.71894C1.66659 7.71889 1.96164 8.69612 2.51405 9.52703C3.06645 10.3579 3.85123 11.005 4.7688 11.387C5.68633 11.769 6.69577 11.8689 7.66962 11.6743C8.64349 11.4797 9.53852 10.9991 10.2414 10.2928C10.7081 9.82383 11.0785 9.26684 11.3313 8.65359C11.5841 8.04033 11.7142 7.38293 11.7142 6.71894C11.7142 6.05495 11.5841 5.39754 11.3313 4.78429C11.0785 4.17103 10.7081 3.61405 10.2414 3.14504C9.53852 2.43878 8.64349 1.95822 7.66962 1.76358ZM4.25634 0.819953C5.41832 0.336194 6.69713 0.209526 7.93093 0.456107C9.16471 0.702685 10.2976 1.31132 11.1864 2.20452C11.7767 2.79764 12.2447 3.50162 12.564 4.27617C12.8833 5.05071 13.0475 5.88076 13.0475 6.71894C13.0475 7.55712 12.8833 8.38716 12.564 9.16171C12.2447 9.93626 11.7767 10.6402 11.1864 11.2334C10.2976 12.1266 9.16471 12.7352 7.93093 12.9818C6.69713 13.2284 5.41832 13.1017 4.25634 12.6179C3.0944 12.1342 2.10181 11.3153 1.40371 10.2652C0.705642 9.21522 0.333252 7.98112 0.333252 6.71894C0.333252 5.45676 0.705642 4.22266 1.40371 3.17266C2.10181 2.12262 3.0944 1.3037 4.25634 0.819953Z" fill="#CCCCCC"/>
<path fill-rule="evenodd" clip-rule="evenodd" d="M11.171 10.1967L17.4725 16.5298L16.5273 17.4702L10.2258 11.1372L11.171 10.1967Z" fill="#CCCCCC"/>
</svg>
