<svg width="127" height="100" viewBox="0 0 127 100" fill="none" xmlns="http://www.w3.org/2000/svg">
<g clip-path="url(#clip0_1_8377)">
<path d="M33.0312 69.5522H39.9865L54.306 88.7383V69.5522H60.8306V99.2249H53.8753L39.5343 79.9958V99.2249H33.0312V69.5522Z" fill="#001F60"/>
<path d="M94.0141 89.8795C94.0141 97.9544 87.5541 99.2249 83.5059 99.2249H66.2578V69.5737H83.4843C88.76 69.5737 92.9805 72.5668 92.9805 78.187C92.9805 80.9648 91.021 82.4936 89.5352 83.2688C91.9899 84.4962 93.9925 86.305 93.9925 89.901L94.0141 89.8795ZM72.567 75.1293V80.7494H82.7307C84.4103 80.7494 86.2621 80.0604 86.2621 77.9717C86.2621 75.8829 84.8194 75.1508 82.4938 75.1508H72.567V75.1293ZM87.3172 89.8795C87.3172 87.0371 84.9486 86.305 82.6445 86.305H72.5886V93.3894H82.8814C84.7548 93.3894 87.3172 92.7434 87.3172 89.8795Z" fill="#001F60"/>
<path d="M126.894 94.3798C123.643 97.1791 120.133 99.9999 113.199 99.9999C103.983 99.9569 96.8555 92.8079 96.8555 84.3238C96.8985 75.5813 104.327 68.7769 113.285 68.7769C121.059 68.7769 125.236 73.7725 125.796 74.3109L120.886 79.2204C119.81 78.1438 117.506 75.6675 113.242 75.6675C108.031 75.6675 103.789 79.565 103.789 84.3669C103.789 88.5443 107.385 93.0663 113.199 93.0663C117.85 93.0663 119.551 91.5374 122.394 89.1472L126.873 94.3798H126.894Z" fill="#001F60"/>
<path d="M30.0388 94.3798C26.7873 97.1791 23.2773 99.9999 16.3437 99.9999C7.12748 99.9569 0 92.8079 0 84.3238C0.0430663 75.5813 7.47201 68.7769 16.4298 68.7769C24.2033 68.7769 28.3807 73.7725 28.9406 74.3109L24.031 79.2204C22.9543 78.1438 20.6503 75.6675 16.3867 75.6675C11.1757 75.6675 6.93368 79.565 6.93368 84.3669C6.93368 88.5443 10.5297 93.0663 16.3437 93.0663C20.9948 93.0663 22.6959 91.5374 25.5383 89.1472L30.0172 94.3798H30.0388Z" fill="#001F60"/>
<path d="M86.391 15.2457L70.8871 50.6677L66.4513 19.8968C65.8914 15.7194 72.9974 13.1354 72.9974 13.1354C72.3514 11.6927 70.0904 11.7142 70.0904 11.7142H65.2669C64.4918 4.15609 71.3608 -1.37793 78.7898 0.323189C86.0895 1.95971 88.7381 9.88391 86.3694 15.2672L86.391 15.2457Z" fill="#001F60"/>
<path d="M57.5788 62.1232L27.3462 41.9681C19.6589 36.8217 12.0362 42.0758 10.4212 47.4806C8.05252 55.4694 13.3712 62.1232 21.7261 62.1232H57.5788Z" fill="#001F60"/>
<path d="M61.5417 12.1879C62.6614 4.37134 55.6631 -1.42108 48.0619 0.301575C40.7622 1.9381 38.1136 9.8623 40.4822 15.2456L55.9861 50.6676L61.5201 12.1879H61.5417Z" fill="#001F60"/>
<path d="M54.7795 56.4816L39.9001 22.5669C36.4117 14.7073 27.1956 13.7167 22.0922 18.3464C18.4962 21.5979 15.7184 30.448 23.7502 35.8098L54.8011 56.5031L54.7795 56.4816Z" fill="#001F60"/>
<path d="M105.146 62.1232C113.501 62.1232 118.841 55.4694 116.451 47.4806C114.836 42.0758 107.234 36.8217 99.5255 41.9681L69.293 62.1232H105.124H105.146Z" fill="#001F60"/>
<path d="M103.166 35.7882C111.198 30.4264 108.399 21.5763 104.824 18.3248C99.7207 13.7167 90.5045 14.6857 87.0161 22.5453L72.1367 56.46L103.188 35.7667L103.166 35.7882Z" fill="#001F60"/>
</g>
<defs>
<clipPath id="clip0_1_8377">
<rect width="126.895" height="100" fill="white"/>
</clipPath>
</defs>
</svg>
