<svg width="29" height="29" viewBox="0 0 29 29" fill="none" xmlns="http://www.w3.org/2000/svg">
<circle cx="14.6147" cy="14.123" r="14.1225" fill="black"></circle>
<path d="M11.4224 12.2983H8.99219V20.0482H11.4224V12.2983Z" fill="#F8FAFB"></path>
<path d="M17.9974 12.1306C17.9078 12.1194 17.8127 12.1138 17.7175 12.1082C16.3568 12.0522 15.5896 12.8586 15.3208 13.2058C15.2481 13.301 15.2145 13.3569 15.2145 13.3569V12.321H12.8906V20.0708H15.2145H15.3208C15.3208 19.2813 15.3208 18.4974 15.3208 17.7078C15.3208 17.2823 15.3208 16.8567 15.3208 16.4311C15.3208 15.9048 15.2816 15.3448 15.5448 14.8632C15.7688 14.4601 16.172 14.2585 16.6255 14.2585C17.9694 14.2585 17.9974 15.4736 17.9974 15.5856C17.9974 15.5912 17.9974 15.5968 17.9974 15.5968V20.1044H20.4277V15.048C20.4277 13.3178 19.5485 12.2986 17.9974 12.1306Z" fill="#F8FAFB"></path>
<path d="M10.208 11.2963C10.9873 11.2963 11.6191 10.6645 11.6191 9.88522C11.6191 9.10589 10.9873 8.47412 10.208 8.47412C9.42864 8.47412 8.79688 9.10589 8.79688 9.88522C8.79688 10.6645 9.42864 11.2963 10.208 11.2963Z" fill="#F8FAFB"></path>
</svg>
